<?xml version="1.0" standalone="no"?>
<!DOCTYPE svg PUBLIC "-//W3C//DTD SVG 20010904//EN"
 "http://www.w3.org/TR/2001/REC-SVG-20010904/DTD/svg10.dtd">
<svg version="1.0" xmlns="http://www.w3.org/2000/svg"
 width="95.000000pt" height="62.000000pt" viewBox="0 0 95.000000 62.000000"
 preserveAspectRatio="xMidYMid meet">
<metadata>
Created by potrace 1.11, written by Peter Selinger 2001-2013
</metadata>
<g transform="translate(0.000000,62.000000) scale(0.100000,-0.100000)"
fill="#000000" stroke="none">
<path d="M0 310 l0 -310 475 0 475 0 0 310 0 310 -475 0 -475 0 0 -310z m509
199 c19 -11 41 -27 49 -36 24 -24 28 -124 7 -192 -16 -53 -16 -60 -1 -89 32
-63 16 -92 -52 -92 -104 0 -146 77 -106 194 10 30 14 60 10 84 -19 104 -19
123 0 137 26 20 54 18 93 -6z"/>
</g>
</svg>
